<svg viewBox="0 0 49 31" fill="none" xmlns="http://www.w3.org/2000/svg" class="black logo" data-v-4c64657a=""><path fill-rule="evenodd" clip-rule="evenodd" d="M15.2022 31C6.80628 31 0 24.0605 0 15.4999C0 6.93922 6.80628 0 15.2022 0C16.2957 0 17.3617 0.119846 18.3897 0.34348L21.7821 7.22523C20.0207 6.02063 17.9115 5.27701 15.6108 5.19591C15.4715 5.19064 15.3315 5.18785 15.1908 5.18785V5.18921C9.60773 5.1956 5.08367 9.83543 5.08367 15.5294C5.08367 21.2274 9.61393 25.8766 15.2022 25.8766C19.9255 25.8766 23.8925 22.3408 25.0077 18.1754H14.218V12.8198H24.5868L29.0366 21.8885C26.6399 27.2378 21.3471 31 15.2022 31Z" fill="black" data-v-4c64657a=""></path><path fill-rule="evenodd" clip-rule="evenodd" d="M33.9534 30.9127L31.0015 24.9386L43.0687 0.323319H49.0002L33.9534 30.9127Z" fill="black" data-v-4c64657a=""></path></svg>