<svg xmlns="http://www.w3.org/2000/svg" xmlns:xlink="http://www.w3.org/1999/xlink" id="Layer_1" x="0px" y="0px" viewBox="0 0 112 63" style="enable-background:new 0 0 112 63;" xml:space="preserve"><style type="text/css">	.st0{fill:#2A446F;}	.st1{fill:none;}	.st2{fill:#51C1AF;}</style><path class="st0" d="M110.6,61.2c-0.3,0.3-0.7,0.5-1.1,0.5s-0.8-0.2-1.1-0.5s-0.4-0.8-0.4-1.4c0-0.7,0.1-1.2,0.4-1.5  c0.3-0.4,0.7-0.6,1.2-0.6c0.4,0,0.8,0.1,1,0.4c0.3,0.3,0.4,0.6,0.4,1.1v0.8C111,60.4,110.9,60.9,110.6,61.2z M111.8,54.7H111v3.2h0  c-0.3-0.6-0.8-0.8-1.5-0.8c-0.7,0-1.3,0.3-1.7,0.8c-0.4,0.5-0.6,1.2-0.6,2c0,0.8,0.2,1.4,0.6,1.9c0.4,0.5,0.9,0.7,1.5,0.7  c0.8,0,1.4-0.3,1.8-1h0v0.9h0.8L111.8,54.7L111.8,54.7z M105.9,59.1c0-0.7-0.2-1.2-0.4-1.6c-0.3-0.4-0.7-0.5-1.3-0.5  c-0.7,0-1.3,0.3-1.7,1h0v-0.9h-0.8v5.1h0.8v-2.9c0-0.5,0.1-0.9,0.4-1.2c0.3-0.3,0.6-0.5,1-0.5c0.8,0,1.2,0.5,1.2,1.6v2.9h0.8  L105.9,59.1L105.9,59.1z M100,57.1h-0.8v3c0,0.5-0.1,0.9-0.4,1.2c-0.3,0.3-0.6,0.4-1,0.4c-0.8,0-1.2-0.5-1.2-1.6v-2.9h-0.8v3.1  c0,1.5,0.6,2.2,1.8,2.2c0.7,0,1.2-0.3,1.6-0.9h0v0.8h0.8V57.1L100,57.1z M94.6,55.1h-3.6v7.2h0.8v-3.2h2.6v-0.8h-2.6v-2.5h2.8V55.1z   M83.2,59.2c0.1-0.4,0.2-0.8,0.5-1.1c0.3-0.3,0.6-0.4,1-0.4c0.4,0,0.7,0.1,0.9,0.4c0.2,0.3,0.3,0.6,0.3,1.1L83.2,59.2L83.2,59.2z   M86.8,59.5c0-0.8-0.2-1.4-0.6-1.8c-0.4-0.4-0.9-0.7-1.6-0.7c-0.7,0-1.2,0.2-1.7,0.8c-0.5,0.5-0.7,1.2-0.7,2c0,0.8,0.2,1.5,0.6,2  c0.4,0.5,1,0.7,1.7,0.7s1.3-0.2,1.8-0.5v-0.8c-0.5,0.4-1,0.6-1.6,0.6c-0.5,0-0.9-0.2-1.2-0.5c-0.3-0.3-0.4-0.7-0.5-1.3h3.6  L86.8,59.5L86.8,59.5z M81.9,57.1c-0.1,0-0.3-0.1-0.5-0.1c-0.3,0-0.6,0.1-0.8,0.3c-0.2,0.2-0.4,0.5-0.5,0.8h0v-1.1h-0.8v5.1h0.8  v-2.6c0-0.6,0.1-1,0.4-1.4c0.2-0.3,0.5-0.5,0.9-0.5c0.3,0,0.5,0.1,0.6,0.2V57.1L81.9,57.1z M77.6,57.1h-0.8v3c0,0.5-0.1,0.9-0.4,1.2  c-0.3,0.3-0.6,0.4-1,0.4c-0.8,0-1.2-0.5-1.2-1.6v-2.9h-0.8v3.1c0,1.5,0.6,2.2,1.8,2.2c0.7,0,1.2-0.3,1.6-0.9h0v0.8h0.8V57.1  L77.6,57.1z M72.3,61.5c-0.2,0.1-0.3,0.2-0.5,0.2c-0.3,0-0.5-0.1-0.6-0.2c-0.1-0.1-0.2-0.4-0.2-0.7v-2.9h1.3v-0.7H71v-1.5l-0.8,0.3  v1.3h-0.9v0.7h0.9v3c0,1,0.4,1.5,1.3,1.5c0.3,0,0.6-0.1,0.8-0.2L72.3,61.5L72.3,61.5z M68.4,59.1c0-0.7-0.2-1.2-0.4-1.6  c-0.3-0.4-0.7-0.5-1.3-0.5c-0.7,0-1.3,0.3-1.7,1h0v-0.9h-0.8v5.1H65v-2.9c0-0.5,0.1-0.9,0.4-1.2c0.3-0.3,0.6-0.5,1-0.5  c0.8,0,1.2,0.5,1.2,1.6v2.9h0.8L68.4,59.1L68.4,59.1z M59.3,59.2c0.1-0.4,0.2-0.8,0.5-1.1c0.3-0.3,0.6-0.4,1-0.4  c0.4,0,0.7,0.1,0.9,0.4c0.2,0.3,0.3,0.6,0.3,1.1L59.3,59.2L59.3,59.2z M62.9,59.5c0-0.8-0.2-1.4-0.6-1.8C62,57.2,61.5,57,60.8,57  c-0.7,0-1.2,0.2-1.7,0.8c-0.5,0.5-0.7,1.2-0.7,2c0,0.8,0.2,1.5,0.6,2c0.4,0.5,1,0.7,1.7,0.7c0.7,0,1.3-0.2,1.8-0.5v-0.8  c-0.5,0.4-1,0.6-1.6,0.6c-0.5,0-0.9-0.2-1.2-0.5s-0.4-0.7-0.5-1.3h3.6L62.9,59.5L62.9,59.5z M57.6,55.1l-2,5.7  c-0.1,0.2-0.1,0.4-0.2,0.6h0c0-0.2-0.1-0.5-0.1-0.6l-2-5.7h-0.9l2.6,7.2h0.9l2.7-7.2L57.6,55.1L57.6,55.1z M47,62.4  c0.3,0,0.5,0,0.8-0.1c0.2-0.1,0.5-0.2,0.6-0.3c0.2-0.1,0.3-0.3,0.4-0.5c0.1-0.2,0.2-0.4,0.2-0.7c0-0.2,0-0.4-0.1-0.5  c-0.1-0.2-0.2-0.3-0.3-0.4c-0.1-0.1-0.3-0.2-0.5-0.3c-0.2-0.1-0.4-0.2-0.6-0.3c-0.2-0.1-0.3-0.1-0.5-0.2c-0.1-0.1-0.2-0.1-0.3-0.2  c-0.1-0.1-0.2-0.2-0.2-0.2c0-0.1-0.1-0.2-0.1-0.3c0-0.1,0-0.2,0.1-0.3c0-0.1,0.1-0.2,0.2-0.2c0.1-0.1,0.2-0.1,0.3-0.1  c0.1,0,0.3-0.1,0.4-0.1c0.5,0,0.9,0.1,1.3,0.4v-0.8C48.4,57.1,48,57,47.6,57c-0.2,0-0.5,0-0.7,0.1c-0.2,0.1-0.4,0.2-0.6,0.3  c-0.2,0.1-0.3,0.3-0.4,0.5c-0.1,0.2-0.2,0.4-0.2,0.6c0,0.2,0,0.4,0.1,0.5c0.1,0.1,0.1,0.3,0.3,0.4s0.3,0.2,0.4,0.3  c0.2,0.1,0.4,0.2,0.6,0.3c0.2,0.1,0.3,0.1,0.5,0.2c0.1,0.1,0.3,0.1,0.4,0.2c0.1,0.1,0.2,0.2,0.2,0.3c0.1,0.1,0.1,0.2,0.1,0.3  c0,0.5-0.4,0.7-1.1,0.7c-0.5,0-1-0.2-1.5-0.5v0.9C46,62.3,46.4,62.4,47,62.4 M43.8,55.1l0.2,2.2h0.6l0.2-2.2H43.8z M42.8,61.5  c-0.2,0.1-0.3,0.2-0.5,0.2c-0.3,0-0.5-0.1-0.6-0.2c-0.1-0.1-0.2-0.4-0.2-0.7v-2.9h1.3v-0.7h-1.3v-1.5l-0.8,0.3v1.3h-0.9v0.7h0.9v3  c0,1,0.4,1.5,1.3,1.5c0.3,0,0.6-0.1,0.8-0.2L42.8,61.5L42.8,61.5z M39.5,54.6c-0.1-0.1-0.3-0.1-0.6-0.1c-0.5,0-0.9,0.2-1.2,0.5  c-0.3,0.3-0.5,0.7-0.5,1.3v0.8h-0.9v0.7h0.9v4.4h0.8v-4.4h1.2v-0.7h-1.2v-0.8c0-0.7,0.3-1.1,0.9-1.1c0.2,0,0.4,0,0.5,0.1V54.6  L39.5,54.6z M34.6,58.2c0.3,0.3,0.4,0.8,0.4,1.5c0,0.6-0.1,1.1-0.4,1.5c-0.3,0.3-0.7,0.5-1.2,0.5c-0.5,0-0.9-0.2-1.2-0.5  c-0.3-0.3-0.5-0.8-0.5-1.4c0-0.6,0.2-1.1,0.5-1.5c0.3-0.4,0.7-0.5,1.3-0.5S34.3,57.9,34.6,58.2 M35.2,61.6c0.5-0.5,0.7-1.1,0.7-2  c0-0.8-0.2-1.5-0.6-2c-0.4-0.5-1-0.7-1.8-0.7c-0.8,0-1.4,0.2-1.9,0.7c-0.5,0.5-0.7,1.2-0.7,2c0,0.8,0.2,1.4,0.7,1.9  c0.5,0.5,1.1,0.7,1.8,0.7C34.1,62.4,34.7,62.1,35.2,61.6 M27.9,62.4c0.3,0,0.5,0,0.8-0.1c0.2-0.1,0.5-0.2,0.6-0.3  c0.2-0.1,0.3-0.3,0.4-0.5c0.1-0.2,0.2-0.4,0.2-0.7c0-0.2,0-0.4-0.1-0.5c-0.1-0.2-0.2-0.3-0.3-0.4c-0.1-0.1-0.3-0.2-0.5-0.3  c-0.2-0.1-0.4-0.2-0.6-0.3c-0.2-0.1-0.3-0.1-0.5-0.2c-0.1-0.1-0.2-0.1-0.3-0.2c-0.1-0.1-0.2-0.2-0.2-0.2c0-0.1-0.1-0.2-0.1-0.3  c0-0.1,0-0.2,0.1-0.3c0-0.1,0.1-0.2,0.2-0.2c0.1-0.1,0.2-0.1,0.3-0.1c0.1,0,0.3-0.1,0.4-0.1c0.5,0,0.9,0.1,1.3,0.4v-0.8  c-0.3-0.2-0.7-0.2-1.2-0.2c-0.2,0-0.5,0-0.7,0.1c-0.2,0.1-0.4,0.2-0.6,0.3c-0.2,0.1-0.3,0.3-0.4,0.5c-0.1,0.2-0.2,0.4-0.2,0.6  c0,0.2,0,0.4,0.1,0.5c0.1,0.1,0.1,0.3,0.3,0.4c0.1,0.1,0.3,0.2,0.4,0.3c0.2,0.1,0.4,0.2,0.6,0.3c0.2,0.1,0.3,0.1,0.5,0.2  c0.1,0.1,0.3,0.1,0.4,0.2c0.1,0.1,0.2,0.2,0.2,0.3c0.1,0.1,0.1,0.2,0.1,0.3c0,0.5-0.4,0.7-1.1,0.7c-0.5,0-1-0.2-1.5-0.5v0.9  C26.9,62.3,27.4,62.4,27.9,62.4 M24.2,58.2c0.3,0.3,0.4,0.8,0.4,1.5s-0.1,1.1-0.4,1.5c-0.3,0.3-0.7,0.5-1.2,0.5  c-0.5,0-0.9-0.2-1.2-0.5c-0.3-0.3-0.5-0.8-0.5-1.4c0-0.6,0.2-1.1,0.5-1.5s0.7-0.5,1.3-0.5C23.6,57.7,24,57.9,24.2,58.2 M24.8,61.6  c0.5-0.5,0.7-1.2,0.7-2c0-0.8-0.2-1.5-0.6-2c-0.4-0.5-1-0.7-1.8-0.7c-0.8,0-1.4,0.2-1.9,0.7c-0.5,0.5-0.7,1.2-0.7,2  c0,0.8,0.2,1.4,0.7,1.9c0.5,0.5,1.1,0.7,1.8,0.7C23.7,62.4,24.4,62.1,24.8,61.6 M20.1,57.1c-0.1,0-0.3-0.1-0.5-0.1  c-0.3,0-0.6,0.1-0.8,0.3c-0.2,0.2-0.4,0.5-0.5,0.8h0v-1.1h-0.8v5.1h0.8v-2.6c0-0.6,0.1-1,0.4-1.4c0.2-0.3,0.5-0.5,0.9-0.5  c0.3,0,0.5,0.1,0.6,0.2L20.1,57.1L20.1,57.1z M16.1,61.3c-0.4,0.3-0.8,0.4-1.3,0.4c-0.5,0-1-0.2-1.3-0.5c-0.3-0.3-0.5-0.8-0.5-1.4  c0-0.6,0.2-1.1,0.5-1.5c0.3-0.4,0.8-0.6,1.3-0.6c0.4,0,0.8,0.1,1.2,0.4v-0.8C15.8,57.1,15.4,57,15,57c-0.8,0-1.5,0.3-1.9,0.8  c-0.5,0.5-0.7,1.2-0.7,2c0,0.8,0.2,1.4,0.7,1.9c0.4,0.5,1,0.7,1.8,0.7c0.5,0,1-0.1,1.4-0.4V61.3z M11,57.1h-0.8v5.1H11V57.1z   M11,55.7c0.1-0.1,0.2-0.2,0.2-0.4c0-0.2-0.1-0.3-0.2-0.4c-0.1-0.1-0.2-0.2-0.4-0.2s-0.3,0.1-0.4,0.2C10.1,55,10,55.2,10,55.3  c0,0.2,0.1,0.3,0.2,0.4c0.1,0.1,0.2,0.2,0.4,0.2S10.9,55.8,11,55.7z M8.4,55.1H7.3l-2.2,5C5,60.3,4.9,60.6,4.7,61h0  c-0.1-0.2-0.2-0.5-0.3-0.9l-2.2-5H1.1v7.2h0.8v-4.8c0-0.7,0-1.1,0-1.4h0c0.1,0.3,0.1,0.6,0.2,0.7l2.5,5.5h0.4l2.5-5.5  c0.1-0.1,0.1-0.4,0.2-0.7h0c0,0.6-0.1,1-0.1,1.4v4.8h0.8L8.4,55.1L8.4,55.1z"></path><rect x="1" y="0.6" class="st1" width="110.8" height="44.6"></rect><path class="st0" d="M33.9,22.9l-3.6,4.6l-21-27H1v44.5h8.4V14.3l19.1,25.5h2.1l12.7-16.9H33.9z"></path><path class="st2" d="M50.8,0.6l-9.9,13h8.6v31.5h9.6V0.6H50.8z"></path><path class="st2" d="M79.5,37.1l26.2-15.8c1-0.6,1.9-1.2,2.6-1.8c0.7-0.6,1.4-1.1,1.8-1.8c0.5-0.6,0.8-1.4,1-2.3  c0.2-0.9,0.3-1.9,0.3-3.2V9.2c0-1.8-0.2-3.2-0.5-4.3s-0.9-2-1.8-2.6c-0.9-0.6-1.8-1.1-3.1-1.4c-1.3-0.2-2.9-0.3-4.8-0.3H78.4  c-1.9,0-3.5,0.1-4.8,0.3c-1.3,0.2-2.3,0.6-3.1,1.4c-0.8,0.6-1.4,1.5-1.8,2.6c-0.3,1.1-0.5,2.6-0.5,4.3v5.6H77V8h25.4V14l-30.8,19  c-1.4,0.8-2.3,1.5-3.1,2.2c-0.7,0.6-1.3,1.3-1.7,1.9S66.1,38.4,66,39s-0.2,1.4-0.2,2.1v4.1h45.9v-8L79.5,37.1z"></path></svg>